<?xml version="1.0" encoding="UTF-8"?>
<svg id="Layer_1" data-name="Layer 1" xmlns="http://www.w3.org/2000/svg" viewBox="0 0 306.74 48.75">
  <defs>
    <style>
      .cls-1 {
        fill-rule: evenodd;
      }

      .cls-1, .cls-2 {
        fill: #fff;
      }
    </style>
  </defs>
  <path class="cls-2" d="M0,12.65h10.73l-6.18,35.52h13.79l6.19-35.52h10.74l2.1-12.06H2.1L0,12.65Z"/>
  <path class="cls-2" d="M74.53,2c-1.12-.81-2.41-1.35-3.77-1.57-1.71-.3-3.45-.44-5.19-.42h-11.48c-1.77-.01-3.54.13-5.29.42-1.52.25-2.98.78-4.3,1.57-1.27.78-2.34,1.85-3.11,3.12-.92,1.59-1.53,3.33-1.81,5.15l-4.87,27.81c-.35,1.75-.35,3.55,0,5.3.26,1.27.93,2.41,1.9,3.26,1.08.85,2.35,1.42,3.7,1.65,1.76.32,3.54.48,5.33.46h11.43c1.84.01,3.67-.14,5.48-.46,1.53-.27,2.99-.83,4.31-1.65,1.28-.83,2.35-1.95,3.11-3.26.91-1.64,1.52-3.44,1.78-5.3l4.87-27.81c.4-1.69.4-3.45,0-5.15-.35-1.24-1.08-2.33-2.09-3.12ZM58.16,36.5h-9.38l4.28-24.27h9.38l-4.28,24.27Z"/>
  <path class="cls-2" d="M157.53,2c-1.12-.81-2.41-1.35-3.77-1.57-1.71-.3-3.45-.44-5.19-.42h-11.48c-1.77-.01-3.54.13-5.29.42-1.52.25-2.98.78-4.3,1.57-1.27.78-2.34,1.85-3.11,3.12-.92,1.59-1.53,3.33-1.81,5.15l-4.87,27.81c-.35,1.75-.35,3.55,0,5.3.26,1.27.93,2.41,1.9,3.26,1.08.85,2.35,1.42,3.7,1.65,1.76.32,3.54.48,5.33.46h11.43c1.84.01,3.67-.14,5.48-.46,1.53-.27,2.99-.83,4.31-1.65,1.28-.83,2.35-1.95,3.11-3.26.91-1.64,1.52-3.44,1.78-5.3l4.87-27.81c.4-1.69.4-3.45,0-5.15-.35-1.24-1.08-2.33-2.09-3.12ZM141.16,36.5h-9.38l4.28-24.27h9.38l-4.28,24.27Z"/>
  <path class="cls-1" d="M177.25,48.18L200.68.58h12.58l6.87,47.6h-13.63l-.75-5.85h-12.1l-2.86,5.85h-13.53ZM198.03,32.78h6.77l-1.22-11.97-5.54,11.97Z"/>
  <path id="path13" class="cls-2" d="M248.44,31.58l8.3-1.6c1-.3,2-.7,2.9-1.2s1.7-1.1,2.4-1.9c.7-.8,1.3-1.7,1.7-2.7.5-1.1.9-2.3,1.1-3.6l1.6-9.2c.4-1.7.4-3.5,0-5.3-.3-1.3-1-2.4-1.9-3.3-1.1-.9-2.4-1.4-3.7-1.7-1.7-.3-3.5-.5-5.2-.5h-22.8l-8.3,47.6h13.8l2.8-16.3M252.34,14.18l-.9,5.2c0,.3-.2.6-.3.9-.1.3-.3.5-.6.7-.2.2-.5.3-.8.4s-.7.2-1,.2h-5.8l1.6-9.6h5.8c.3,0,.7,0,1,.2.2,0,.5.2.7.4s.3.4.3.7v1-.1Z"/>
  <path id="path13-2" data-name="path13" class="cls-2" d="M288.44,31.58l8.3-1.6c1-.3,2-.7,2.9-1.2s1.7-1.1,2.4-1.9c.7-.8,1.3-1.7,1.7-2.7.5-1.1.9-2.3,1.1-3.6l1.6-9.2c.4-1.7.4-3.5,0-5.3-.3-1.3-1-2.4-1.9-3.3-1.1-.9-2.4-1.4-3.7-1.7-1.7-.3-3.5-.5-5.2-.5h-22.8l-8.3,47.6h13.8l2.8-16.3M292.34,14.18l-.9,5.2c0,.3-.2.6-.3.9-.1.3-.3.5-.6.7-.2.2-.5.3-.8.4s-.7.2-1,.2h-5.8l1.6-9.6h5.8c.3,0,.7,0,1,.2.2,0,.5.2.7.4s.3.4.3.7v1-.1Z"/>
  <path class="cls-2" d="M81.57,10.27l-4.87,27.81c-.35,1.75-.75,4.49-.91,6.77,0,0-.13,1.24-.25,3.18,2.42.26,3.52.19,5.53.34.85.02,2.37.17,3.16.2.99.04,2.12.06,3.41.18h11.43c1.84.01,3.67-.14,5.48-.46,1.53-.27,2.99-.83,4.31-1.65,1.28-.83,2.35-1.95,3.11-3.26.91-1.64,1.52-3.44,1.78-5.3l4.87-27.81c.4-1.69.4-3.45,0-5.15-.35-1.24-1.08-2.33-2.09-3.12-1.12-.81-2.41-1.35-3.77-1.57-1.71-.3-3.45-.44-5.19-.42h-11.48c-1.77-.01-3.51,0-5.31,0h-7.5M100.16,36.5h-9.38l4.28-24.27h9.38l-4.28,24.27Z"/>
</svg>